<mxfile host="65bd71144e">
    <diagram id="XhLfsa_PmwjFtRQGexOe" name="PÃ¡gina-1">
        <mxGraphModel dx="547" dy="458" grid="1" gridSize="10" guides="1" tooltips="1" connect="1" arrows="1" fold="1" page="1" pageScale="1" pageWidth="1169" pageHeight="1654" math="0" shadow="0">
            <root>
                <mxCell id="0"/>
                <mxCell id="1" parent="0"/>
                <mxCell id="4" value="3" style="edgeStyle=none;html=1;fontFamily=Times New Roman;fontSize=18;endArrow=none;endFill=0;" edge="1" parent="1" source="2" target="3">
                    <mxGeometry relative="1" as="geometry"/>
                </mxCell>
                <mxCell id="8" value="5" style="edgeStyle=none;html=1;fontFamily=Times New Roman;fontSize=18;endArrow=none;endFill=0;" edge="1" parent="1" source="2" target="7">
                    <mxGeometry relative="1" as="geometry"/>
                </mxCell>
                <mxCell id="2" value="A" style="ellipse;whiteSpace=wrap;html=1;aspect=fixed;fontSize=18;fontFamily=Times New Roman;" vertex="1" parent="1">
                    <mxGeometry x="100" y="120" width="40" height="40" as="geometry"/>
                </mxCell>
                <mxCell id="3" value="B" style="ellipse;whiteSpace=wrap;html=1;aspect=fixed;fontSize=18;fontFamily=Times New Roman;" vertex="1" parent="1">
                    <mxGeometry x="160" y="60" width="40" height="40" as="geometry"/>
                </mxCell>
                <mxCell id="10" value="2" style="edgeStyle=none;html=1;fontFamily=Times New Roman;fontSize=18;endArrow=none;endFill=0;" edge="1" parent="1" source="7" target="9">
                    <mxGeometry relative="1" as="geometry"/>
                </mxCell>
                <mxCell id="7" value="C" style="ellipse;whiteSpace=wrap;html=1;aspect=fixed;fontSize=18;fontFamily=Times New Roman;" vertex="1" parent="1">
                    <mxGeometry x="160" y="180" width="40" height="40" as="geometry"/>
                </mxCell>
                <mxCell id="12" value="2" style="edgeStyle=none;html=1;fontFamily=Times New Roman;fontSize=18;endArrow=none;endFill=0;" edge="1" parent="1" source="9" target="11">
                    <mxGeometry relative="1" as="geometry"/>
                </mxCell>
                <mxCell id="14" value="2" style="edgeStyle=none;html=1;fontFamily=Times New Roman;fontSize=18;endArrow=none;endFill=0;" edge="1" parent="1" source="9" target="13">
                    <mxGeometry relative="1" as="geometry"/>
                </mxCell>
                <mxCell id="9" value="D" style="ellipse;whiteSpace=wrap;html=1;aspect=fixed;fontSize=18;fontFamily=Times New Roman;" vertex="1" parent="1">
                    <mxGeometry x="260" y="60" width="40" height="40" as="geometry"/>
                </mxCell>
                <mxCell id="11" value="E" style="ellipse;whiteSpace=wrap;html=1;aspect=fixed;fontSize=18;fontFamily=Times New Roman;" vertex="1" parent="1">
                    <mxGeometry x="260" y="180" width="40" height="40" as="geometry"/>
                </mxCell>
                <mxCell id="13" value="F" style="ellipse;whiteSpace=wrap;html=1;aspect=fixed;fontSize=18;fontFamily=Times New Roman;" vertex="1" parent="1">
                    <mxGeometry x="320" y="120" width="40" height="40" as="geometry"/>
                </mxCell>
            </root>
        </mxGraphModel>
    </diagram>
</mxfile>